<svg width="36" height="37" viewBox="0 0 36 37" fill="none" xmlns="http://www.w3.org/2000/svg">
<path d="M28.2292 36.3938C27.9538 36.3359 27.6775 36.2837 27.404 36.2201C26.0547 35.9057 24.8877 35.26 23.9286 34.2592C23.7492 34.0721 23.6115 34.0493 23.3836 34.15C22.8528 34.3826 22.3115 34.5915 21.7712 34.8004C21.2499 35.0027 20.91 34.8527 20.6973 34.3266C20.2633 33.2517 19.836 32.1749 19.3982 31.0791C18.9937 31.1161 18.5949 31.1892 18.198 31.1817C17.3234 31.1655 16.447 31.1285 15.5753 31.0592C15.2733 31.0354 15.1195 31.0734 14.997 31.3811C14.621 32.3259 14.2051 33.2546 13.8015 34.1889C13.5508 34.7682 13.2137 34.9087 12.644 34.6647C11.176 34.036 9.70887 33.4055 8.24274 32.7722C7.72333 32.5481 7.58279 32.2091 7.80309 31.6887C8.25414 30.6214 8.71372 29.5569 9.14198 28.5551C8.13924 27.5296 7.15929 26.5269 6.12616 25.471C5.47381 25.7302 4.7189 26.0303 3.964 26.3303C3.6231 26.4661 3.28411 26.6066 2.94131 26.7358C2.45039 26.92 2.1019 26.7814 1.90818 26.3018C1.29097 24.7778 0.680397 23.2509 0.0764728 21.7221C-0.111541 21.2454 0.048934 20.8969 0.537961 20.6984C1.49133 20.312 2.44944 19.935 3.40565 19.5533C3.53669 19.501 3.66584 19.4441 3.77598 19.3975C3.7475 18.6322 3.69527 17.8896 3.70097 17.1471C3.70476 16.6049 3.76079 16.0589 3.83675 15.5214C3.87758 15.2308 3.79402 15.1074 3.52814 14.9991C2.57478 14.6108 1.63281 14.1958 0.687043 13.7894C0.1249 13.5473 -0.0175351 13.2121 0.217957 12.6585C0.844671 11.1895 1.47519 9.7224 2.10855 8.25627C2.34974 7.69888 2.67829 7.57259 3.24708 7.81378C4.30299 8.26197 5.35606 8.71586 6.33601 9.13557C7.37009 8.12523 8.37378 7.14528 9.4221 6.12165C9.04417 5.17493 8.62827 4.13326 8.21236 3.09254C7.93508 2.39935 8.05947 2.11448 8.7631 1.83246C10.2017 1.25702 11.6393 0.679688 13.0789 0.1071C13.6657 -0.126494 13.9829 0.0140383 14.2222 0.607517C14.602 1.55139 14.978 2.49621 15.3569 3.44007C15.4044 3.55972 15.4566 3.67747 15.4917 3.76103C16.6587 3.76103 17.7925 3.75818 18.9254 3.76293C19.2026 3.76388 19.5397 3.88827 19.7391 3.77052C19.93 3.65752 19.9784 3.30334 20.0857 3.05265C20.4323 2.24837 20.7732 1.44219 21.1227 0.639805C21.3468 0.12514 21.6952 -0.0163469 22.2128 0.204902C23.7045 0.839212 25.1935 1.47827 26.6814 2.12208C27.1752 2.33573 27.3119 2.68802 27.1002 3.19034C26.6814 4.18169 26.2465 5.16733 25.8354 6.16153C25.7907 6.26978 25.8012 6.48723 25.8733 6.54421C26.9312 7.37983 27.857 8.33984 28.666 9.46033C29.4342 9.15362 30.1996 8.84785 30.9649 8.54304C31.2944 8.412 31.623 8.27621 31.9544 8.15087C32.4453 7.96571 32.7995 8.10434 32.9922 8.57913C33.6085 10.1032 34.22 11.6301 34.824 13.1589C35.012 13.6365 34.8572 13.9831 34.3672 14.1844C33.4044 14.5794 32.4348 14.9593 31.4682 15.3457C31.3476 15.3942 31.2279 15.4435 31.1074 15.4929C31.1434 16.0807 31.2146 16.6571 31.2061 17.2325C31.1947 17.9646 31.1301 18.6977 31.0637 19.4279C31.0437 19.6501 31.0779 19.7574 31.3011 19.8486C32.2535 20.2379 33.1964 20.6529 34.1422 21.0583C34.8031 21.3422 34.9275 21.6537 34.6454 22.3156C34.4042 22.8815 34.1706 23.4512 33.9152 24.0096C33.8212 24.2147 33.8582 24.3381 34.0092 24.5024C35.8324 26.4832 36.4458 28.7973 35.6729 31.3725C34.9009 33.943 33.1223 35.5468 30.5158 36.2153C30.2318 36.2884 29.9413 36.3349 29.6536 36.3938C29.1769 36.3938 28.703 36.3938 28.2292 36.3938ZM22.8319 32.8424C21.1483 29.706 21.982 26.3522 24.0492 24.3353C26.0898 22.345 29.4988 21.5436 32.6428 23.3696C32.809 22.9802 32.9732 22.5957 33.148 22.1874C32.0977 21.7373 31.077 21.3014 30.0571 20.8608C29.5747 20.6529 29.4741 20.3946 29.5368 19.8714C29.6441 18.9797 29.7523 18.0852 29.7742 17.1888C29.7894 16.5669 29.6745 15.9402 29.5947 15.3182C29.5282 14.7931 29.6536 14.5405 30.1378 14.342C30.3676 14.248 30.5993 14.1578 30.8291 14.0648C31.6277 13.7438 32.4253 13.4229 33.26 13.0877C32.8033 11.9444 32.3579 10.8306 31.9069 9.70247C30.8348 10.1288 29.8026 10.5409 28.7686 10.9483C28.3299 11.1211 28.0308 11.0603 27.7972 10.71C26.8932 9.35207 25.7784 8.20689 24.4414 7.27157C24.1052 7.03608 24.0388 6.74741 24.1898 6.36474C24.3066 6.06752 24.4414 5.77791 24.5677 5.48449C24.8915 4.72674 25.2153 3.96898 25.5505 3.18559C24.4167 2.69941 23.3162 2.22653 22.1976 1.747C21.7408 2.80956 21.305 3.83129 20.8625 4.85018C20.6602 5.31547 20.3991 5.44841 19.9034 5.35155C18.3642 5.04959 16.823 5.01825 15.2771 5.30217C14.8242 5.38479 14.5498 5.23285 14.3693 4.81409C14.2848 4.61848 14.2127 4.41813 14.1329 4.22062C13.7901 3.36696 13.4473 2.51425 13.0931 1.634C11.9489 2.09169 10.8351 2.53799 9.70318 2.99093C10.1238 4.0421 10.5293 5.05149 10.9319 6.06088C11.1446 6.59548 11.0677 6.86801 10.5967 7.18326C9.3224 8.03692 8.24464 9.08999 7.3587 10.3415C7.0273 10.8097 6.76616 10.8752 6.22871 10.6454C5.43487 10.3064 4.64293 9.96075 3.8491 9.61985C3.63545 9.5287 3.41894 9.44418 3.18345 9.34827C2.69917 10.4783 2.22914 11.5731 1.75246 12.6841C1.8797 12.7439 1.9832 12.7981 2.0905 12.8436C3.00399 13.2349 3.91842 13.6232 4.83095 14.0163C5.30953 14.2224 5.44817 14.4883 5.34941 15.0001C5.0522 16.527 5.02086 18.0567 5.29909 19.5903C5.3874 20.0793 5.23926 20.3481 4.77018 20.538C4.04661 20.8314 3.32019 21.1163 2.59472 21.4068C2.28042 21.5331 1.96801 21.6632 1.63471 21.799C2.0943 22.947 2.5406 24.0599 2.99069 25.1832C4.0599 24.7569 5.07974 24.3476 6.10242 23.9431C6.5981 23.7465 6.87157 23.8244 7.16593 24.265C8.02434 25.5507 9.08311 26.6389 10.346 27.5296C10.8113 27.8582 10.8768 28.124 10.647 28.6605C10.2606 29.5636 9.87125 30.4647 9.48478 31.3668C9.44015 31.4703 9.40596 31.5786 9.35943 31.7049C10.4847 32.1872 11.5795 32.6563 12.6991 33.1368C13.1416 32.1056 13.5736 31.0952 14.0085 30.0868C14.2374 29.556 14.4766 29.4326 15.0397 29.5417C16.5439 29.8333 18.0499 29.8665 19.5606 29.5921C20.0952 29.4952 20.3478 29.6386 20.5548 30.1523C20.9308 31.0848 21.3031 32.0182 21.6791 32.9516C21.7171 33.0447 21.7674 33.133 21.8215 33.2413C22.1681 33.1055 22.4843 32.9801 22.8319 32.8424ZM34.5562 29.387C34.5638 26.2952 32.0541 23.7712 28.9642 23.7636C25.8809 23.7551 23.3484 26.2819 23.3475 29.3661C23.3465 32.4379 25.8582 34.9609 28.9243 34.9704C32.0189 34.979 34.5486 32.4712 34.5562 29.387Z" fill="white"/>
<path d="M17.0984 11.1249C20.7011 11.1268 23.5099 13.6802 23.7454 16.8337C24.0008 20.2436 21.7399 23.1578 18.4325 23.6838C15.9361 24.0808 13.4093 22.9384 12.1056 20.8285C11.9366 20.555 11.8445 20.2559 12.06 20.0052C12.2043 19.8371 12.455 19.7071 12.6763 19.67C12.9687 19.6216 13.1672 19.8419 13.3258 20.084C14.1282 21.3099 15.2562 22.0344 16.6996 22.2861C19.4524 22.7656 22.2004 20.5759 22.3296 17.7899C22.4359 15.4976 21.1293 13.5225 19.0317 12.8066C16.9417 12.0934 14.7169 12.8398 13.3913 14.6981C12.9991 15.2479 12.3791 15.2735 12.098 14.7503C11.9385 14.4531 12.0135 14.1825 12.1967 13.9204C13.4796 12.0906 15.2439 11.1743 17.0984 11.1249Z" fill="white"/>
<path d="M28.4562 30.459C29.3953 29.3794 30.304 28.3329 31.2147 27.2884C31.3391 27.146 31.4587 26.9959 31.5973 26.8687C31.8756 26.6142 32.2592 26.6133 32.5346 26.8526C32.809 27.0909 32.8603 27.4698 32.6571 27.7841C32.6124 27.8534 32.5564 27.9151 32.5013 27.9778C31.397 29.2474 30.2945 30.5179 29.1883 31.7856C28.7372 32.3021 28.4039 32.3221 27.895 31.8701C27.2132 31.2643 26.5333 30.6556 25.8553 30.045C25.4726 29.7003 25.4204 29.2806 25.7119 28.9559C26.0034 28.6321 26.4146 28.6406 26.8106 28.9891C27.3518 29.4658 27.8864 29.95 28.4562 30.459Z" fill="white"/>
</svg>
