<svg width="36" height="36" viewBox="0 0 36 36" fill="none" xmlns="http://www.w3.org/2000/svg">
<path d="M0 16.0289C0 15.8176 0 15.6071 0 15.3958C0.315644 14.5043 0.954445 14.1332 1.88822 14.1548C2.44812 14.168 3.00989 14.0853 3.57072 14.0552C3.77364 14.044 3.85818 13.9688 3.85255 13.7537C3.8394 13.2849 3.85067 12.8161 3.84973 12.3474C3.84973 12.0345 3.98407 11.8035 4.26965 11.6766C4.74687 11.4643 5.22973 11.8025 5.2504 12.3746C5.26637 12.8293 5.25321 13.284 5.25321 13.8082C6.24148 13.5386 7.17902 13.283 8.11562 13.0275C8.1175 12.9834 8.11844 12.9401 8.12031 12.896C7.92961 12.8302 7.74455 12.741 7.54821 12.7034C7.04186 12.6048 6.8305 12.3831 6.82956 11.873C6.8258 10.0571 6.8258 8.24024 6.82956 6.42435C6.8305 5.91613 7.05126 5.68221 7.55855 5.61458C7.97377 5.55915 8.20393 5.36375 8.30444 4.98141C8.46039 4.38864 8.63136 4.25337 9.24386 4.27967C11.0983 4.35952 12.9452 4.26276 14.7864 4.04951C17.6122 3.72259 20.4323 3.34025 23.2637 3.07064C24.4934 2.95321 25.7438 3.04245 26.9838 3.07158C27.4516 3.08285 27.6658 3.35998 27.6855 3.8278C27.71 4.42527 27.8922 4.62913 28.4897 4.73059C28.9331 4.80574 29.1689 5.04529 29.1708 5.48306C29.1783 7.33465 29.1783 9.18624 29.1708 11.0378C29.1689 11.4775 28.9321 11.7245 28.4953 11.7969C28.4173 11.81 28.3384 11.8251 28.2548 11.8401C28.2586 11.903 28.2539 11.9509 28.2652 11.9951C28.515 12.9336 28.7612 13.872 29.0261 14.8068C29.0524 14.9007 29.1764 15.0059 29.276 15.035C29.6019 15.128 29.9373 15.1853 30.268 15.2614C30.748 15.3723 30.748 15.3742 30.748 14.8678C30.748 10.7663 30.7424 6.66484 30.7584 2.56429C30.7602 2.17913 30.6381 2.04573 30.2764 1.96213C27.1848 1.24911 24.0688 1.28481 20.9462 1.65212C18.4473 1.94616 15.9597 2.34071 13.4581 2.61221C10.8456 2.89497 8.2415 2.78881 5.67877 2.13498C5.28985 2.0354 5.2551 2.06546 5.2551 2.46753C5.25322 3.58074 5.26449 4.69395 5.2457 5.80716C5.24195 6.02604 5.16773 6.27311 5.04748 6.45536C4.88402 6.70336 4.59468 6.74376 4.31943 6.64887C3.99534 6.53708 3.84785 6.28626 3.84879 5.94337C3.85066 4.74843 3.84503 3.55256 3.84973 2.35762C3.85442 1.14108 4.71587 0.491939 5.90987 0.740884C6.90471 0.948495 7.90801 1.14765 8.91788 1.24817C11.4186 1.49712 13.9015 1.22093 16.3759 0.87616C18.7526 0.544546 21.1181 0.128385 23.523 0.0306856C25.9692 -0.0688925 28.3939 0.0579293 30.779 0.647883C31.7438 0.886495 32.1534 1.41445 32.1543 2.40083C32.1562 4.49855 32.1553 6.59627 32.1553 8.69305C32.1553 10.8377 32.1618 12.9815 32.1525 15.1262C32.1468 16.2535 31.2591 16.9364 30.1656 16.6818C29.9542 16.633 29.7419 16.5888 29.4798 16.5306C29.6414 17.1318 29.8086 17.6786 29.9279 18.2356C29.9871 18.509 30.1092 18.5879 30.3723 18.6001C31.8735 18.6696 33.3568 18.866 34.8101 19.2568C35.5438 19.4541 36.0003 20.0384 36.0013 20.8002C36.005 25.1009 36.006 29.4015 36.0003 33.7022C35.9994 34.7919 35.0863 35.5021 34.0266 35.2409C32.485 34.8614 30.9237 34.558 29.337 34.6604C27.0486 34.8079 24.7649 35.039 22.4821 35.2691C21.0147 35.4166 19.5549 35.6317 18.0903 35.8037C17.4064 35.8844 16.7188 35.9352 16.033 36C15.1424 36 14.2519 36 13.3613 36C13.2467 35.9793 13.133 35.9577 13.0184 35.9399C11.6798 35.7285 10.3355 35.5463 9.00337 35.2964C8.11562 35.1292 7.68349 34.5242 7.68161 33.612C7.67879 32.4283 7.68067 31.2456 7.68067 30.0619C7.68067 29.937 7.68067 29.8121 7.68067 29.6627C7.50969 29.6721 7.38381 29.6787 7.25699 29.6871C6.52143 29.7322 5.78586 29.7952 5.04936 29.8168C4.17758 29.8421 3.60736 29.3987 3.38284 28.5598C2.58246 25.5772 1.78771 22.5936 0.985447 19.6119C0.663227 18.4151 0.328796 17.2229 0 16.0289ZM34.5968 27.2587C34.5968 25.208 34.5865 23.1572 34.6062 21.1065C34.61 20.7382 34.486 20.6077 34.1431 20.5278C31.2534 19.8533 28.3328 19.8289 25.4084 20.1502C23.1519 20.3972 20.9086 20.7636 18.6549 21.0435C15.5783 21.4259 12.5093 21.47 9.47777 20.6781C9.17998 20.6001 9.08134 20.6856 9.08228 20.9975C9.08979 25.1807 9.08885 29.3649 9.08228 33.5481C9.08228 33.813 9.18091 33.9079 9.42892 33.9699C11.9221 34.6021 14.4557 34.7393 17.0006 34.4866C20.065 34.1822 23.12 33.7896 26.1787 33.4316C28.8645 33.1179 31.5324 33.147 34.1685 33.8309C34.5884 33.9399 34.5987 33.9276 34.5987 33.4814C34.5968 31.4072 34.5968 29.333 34.5968 27.2587ZM28.562 18.5776C28.531 18.4526 28.5179 18.3972 28.5038 18.3418C27.7071 15.3695 26.9068 12.399 26.1223 9.42391C26.0444 9.12705 25.9251 9.04063 25.6226 9.04721C22.8973 9.10263 20.282 9.72264 17.7503 10.6715C15.7033 11.439 13.7004 12.3229 11.6807 13.1637C8.48481 14.4939 5.22221 15.547 1.71255 15.5752C1.42791 15.5771 1.38751 15.6879 1.45891 15.9491C2.04511 18.1051 2.61721 20.2657 3.19496 22.4245C3.70036 24.3118 4.20483 26.1991 4.71963 28.0835C4.75345 28.2057 4.88215 28.3992 4.962 28.3964C5.85914 28.3738 6.75534 28.3184 7.67785 28.2714C7.67785 27.6523 7.68067 27.115 7.67409 26.5777C7.67315 26.5175 7.61961 26.4574 7.58767 26.3982C7.4956 26.2272 7.37536 26.0657 7.31429 25.8844C7.16399 25.4391 6.84459 25.2221 6.37864 25.285C5.85538 25.3555 5.5745 25.1826 5.43828 24.6772C4.96482 22.9271 4.49604 21.1751 4.03103 19.4221C3.89951 18.9261 4.04795 18.6443 4.51577 18.4423C4.93757 18.2601 5.07755 18.0515 5.07379 17.61C5.06909 17.0445 5.23631 16.865 5.79714 16.7157C6.90471 16.4207 8.03295 16.1764 9.10295 15.7772C11.3491 14.9392 13.5661 14.0252 15.7888 13.1252C17.9391 12.2544 20.1073 11.4484 22.391 10.9927C23.0843 10.8546 23.305 10.973 23.5239 11.624C23.6667 12.0486 23.9936 12.2469 24.4492 12.1849C24.9687 12.1144 25.2459 12.2919 25.383 12.8011C25.7419 14.1341 26.0979 15.4681 26.4511 16.8021C26.608 17.3939 26.7536 17.9876 26.903 18.5766C27.3953 18.5776 27.9551 18.5776 28.562 18.5776ZM15.8949 14.6104C18.189 15.5348 19.042 17.2831 19.011 19.6044C20.7057 19.3601 22.3722 19.1102 24.0415 18.8857C24.3769 18.8406 24.6353 18.7579 24.7903 18.4329C24.8476 18.3117 24.9594 18.199 25.0749 18.1276C25.291 17.9951 25.2816 17.8326 25.2233 17.6213C24.903 16.4601 24.5798 15.299 24.2867 14.1313C24.1994 13.7809 24.081 13.5827 23.6827 13.5094C23.0683 13.3967 22.6418 12.9636 22.3262 12.4432C20.0988 12.9298 18.0058 13.7217 15.8949 14.6104ZM9.52662 12.5371C11.2711 11.7997 12.9959 11.0707 14.7084 10.3464C14.1965 8.45631 14.4661 6.80482 15.7794 5.38818C15.7503 5.37033 15.7409 5.35999 15.7333 5.36093C13.7446 5.58921 11.754 5.76958 9.74832 5.7057C9.66378 5.70288 9.53601 5.763 9.49844 5.83158C9.21567 6.34826 8.792 6.69584 8.23586 6.91755C8.23586 8.35955 8.23304 9.79874 8.24338 11.237C8.24432 11.314 8.33074 11.4258 8.4059 11.4606C8.87748 11.6823 9.2354 12.0205 9.52662 12.5371ZM21.523 8.10497C21.6695 8.08336 21.7832 8.06269 21.8969 8.05048C23.1745 7.91427 24.4492 7.74518 25.7297 7.65499C26.6531 7.59017 27.1923 8.04109 27.4375 8.9326C27.5258 9.252 27.617 9.5714 27.7071 9.88986C27.7682 8.66298 27.7738 7.44832 27.7588 6.23459C27.7579 6.13314 27.6433 5.99129 27.5446 5.94056C27.0223 5.67188 26.6193 5.29048 26.4333 4.73246C26.3441 4.46379 26.2078 4.40085 25.9533 4.41401C24.3309 4.49761 22.7066 4.56149 21.0843 4.65544C20.5751 4.68456 20.0687 4.78507 19.491 4.8621C20.7273 5.64464 21.2984 6.74376 21.523 8.10497ZM12.4163 16.0994C12.3148 16.1097 12.2791 16.105 12.2491 16.1172C10.4266 16.8519 8.58063 17.5151 6.6661 17.9745C6.56652 17.9989 6.48479 18.1455 6.41715 18.2497C6.17854 18.6161 5.94275 18.9844 5.72105 19.3611C5.64871 19.4841 5.55758 19.6513 5.58765 19.7697C5.91644 21.0605 6.26591 22.3456 6.61725 23.6307C6.64167 23.7199 6.71025 23.8383 6.7854 23.8646C7.06723 23.9623 7.36127 24.0262 7.67879 24.1107C7.67879 23.9689 7.67879 23.8411 7.67879 23.7143C7.67879 22.7542 7.6694 21.7951 7.68161 20.835C7.69288 19.9369 8.3129 19.2605 9.16588 19.2361C9.45147 19.2277 9.74081 19.3188 10.0273 19.3733C10.6643 19.4945 11.3002 19.6213 11.9973 19.7584C11.676 18.4432 11.7671 17.2577 12.4163 16.0994ZM15.3322 19.8834C15.3322 19.8909 15.3331 19.8975 15.3331 19.905C15.9983 19.858 16.6652 19.8186 17.3285 19.7556C17.4168 19.7472 17.5586 19.625 17.5652 19.5461C17.6789 18.2328 17.3059 17.1027 16.2012 16.3173C15.2045 15.6081 14.0255 15.9416 13.5013 17.0501C13.0917 17.9162 13.134 18.7993 13.4806 19.6729C13.5182 19.7688 13.6788 19.8702 13.7859 19.874C14.3017 19.8946 14.8174 19.8834 15.3322 19.8834ZM20.1176 8.40934C20.0744 7.66532 19.8189 6.9927 19.2768 6.44878C18.5253 5.69537 17.4619 5.69818 16.7169 6.46005C16.0537 7.13737 15.8282 7.98003 15.8771 8.90441C15.8921 9.19657 15.9616 9.48591 16.0039 9.7621C17.4093 9.29991 18.7489 8.85932 20.1176 8.40934Z" fill="white"/>
<path d="M33.0111 26.8202C33.0111 27.7107 33.0148 28.6013 33.0101 29.4909C33.0073 30.0743 32.8185 30.2857 32.2333 30.3646C31.8481 30.4172 31.6283 30.6361 31.5324 31.0024C31.3803 31.583 31.1886 31.7314 30.5865 31.6986C28.3065 31.5746 26.0491 31.8216 23.7926 32.1006C20.8081 32.4708 17.8367 32.9856 14.8155 32.9856C14.172 32.9856 13.5276 32.9611 12.885 32.9217C12.3928 32.8916 12.1758 32.638 12.1645 32.1514C12.1523 31.5933 11.94 31.3472 11.3867 31.2533C10.869 31.165 10.6812 30.9517 10.6812 30.4256C10.6783 28.621 10.6793 26.8173 10.6812 25.0127C10.6821 24.4641 10.8681 24.2537 11.4073 24.1748C11.8479 24.1099 12.0612 23.9117 12.1645 23.4674C12.2735 22.9996 12.4989 22.8126 12.9855 22.8361C15.8198 22.9751 18.6202 22.6351 21.4187 22.2508C24.3422 21.8488 27.2656 21.4279 30.2323 21.581C30.408 21.5904 30.5836 21.5923 30.7584 21.6111C31.3032 21.6703 31.4986 21.8826 31.5165 22.4237C31.5334 22.946 31.7701 23.2053 32.2971 23.2833C32.7847 23.3556 33.0026 23.5839 33.0073 24.0771C33.0177 24.9921 33.0111 25.9061 33.0111 26.8202ZM19.6075 23.9315C19.5859 23.9258 19.5643 23.9117 19.5436 23.9145C17.5652 24.1626 15.5821 24.3213 13.5849 24.2668C13.4956 24.264 13.366 24.3439 13.32 24.4228C13.0654 24.8652 12.7131 25.1875 12.2509 25.4045C12.173 25.4411 12.094 25.5754 12.0931 25.6647C12.0828 27.024 12.0837 28.3834 12.0922 29.7427C12.0931 29.8366 12.1598 29.9794 12.235 30.0142C12.9076 30.3242 13.3228 30.8446 13.5304 31.5567C15.7982 31.6676 18.0358 31.4402 20.3083 31.1311C18.0612 29.7389 17.5126 26.079 19.6075 23.9315ZM24.0321 30.6286C24.1176 30.6333 24.1524 30.6398 24.1853 30.6361C26.1383 30.3918 28.0951 30.218 30.066 30.2603C30.1722 30.2622 30.2934 30.1542 30.3854 30.0724C30.7199 29.7737 31.0289 29.4411 31.3831 29.1687C31.5287 29.056 31.6095 28.978 31.6085 28.7911C31.602 27.4796 31.602 26.1682 31.6085 24.8577C31.6095 24.6736 31.5653 24.5637 31.3821 24.481C30.8213 24.2283 30.4333 23.799 30.2426 23.2156C30.1759 23.0118 30.0679 22.9704 29.8856 22.9798C28.1928 23.0634 26.4991 23.1358 24.8062 23.2307C24.3403 23.257 23.8781 23.3481 23.3417 23.4195C24.6409 24.2687 25.2506 25.4383 25.3708 26.8643C25.492 28.295 25.0608 29.5604 24.0321 30.6286ZM23.988 27.2758C23.9636 26.3674 23.7024 25.5501 23.0082 24.9216C22.3093 24.2894 21.3933 24.2931 20.6869 24.9113C19.398 26.0376 19.3802 28.4594 20.6521 29.6055C21.398 30.2772 22.3543 30.2659 23.0777 29.5623C23.7174 28.9385 23.9626 28.1523 23.988 27.2758Z" fill="white"/>
</svg>
