<svg width="36" height="36" viewBox="0 0 36 36" fill="none" xmlns="http://www.w3.org/2000/svg">
<path d="M26.2251 35.9931C26.0373 35.9931 25.8504 35.9931 25.6626 35.9931C25.4776 35.8579 25.2644 35.7471 25.1123 35.5818C24.2952 34.6943 23.4848 33.7994 22.6922 32.8903C22.5382 32.7138 22.4227 32.4734 22.371 32.2442C22.2461 31.6855 22.171 31.1154 22.0724 30.5511C21.9898 30.074 21.9024 29.5979 21.8236 29.1565C21.3183 29.6955 20.8676 30.2712 20.3229 30.7379C19.0927 31.7935 17.5854 31.9174 16.2435 31.1446C15.4969 30.7145 14.9287 30.0975 14.4404 29.3988C14.3728 29.3021 14.3052 29.2063 14.1906 29.0438C13.999 30.1397 13.8422 31.1446 13.6375 32.1391C13.5774 32.4321 13.4271 32.7391 13.2337 32.9673C12.5585 33.7618 11.8551 34.5319 11.1442 35.2944C10.9029 35.5536 10.6061 35.7621 10.3356 35.9931C10.1478 35.9931 9.96095 35.9931 9.77313 35.9931C8.82652 35.4212 8.74201 34.8136 9.49046 33.9891C10.1431 33.2688 10.793 32.5448 11.4428 31.8226C11.4973 31.7625 11.5752 31.7005 11.5884 31.6291C11.7152 30.9624 11.8297 30.2937 11.949 29.6157C11.3959 29.9378 10.9 30.2759 10.3638 30.5266C9.82666 30.7774 9.26039 30.9849 8.68754 31.1371C6.82626 31.631 4.95089 31.5277 3.08022 31.184C2.49892 31.077 2.19278 30.6694 2.18339 30.0552C2.13643 27.1149 2.5825 24.2488 3.4906 21.4522C4.30949 18.9345 5.46458 16.5783 6.88448 14.347C6.95773 14.2315 7.01971 14.0146 6.96242 13.9226C6.40554 13.0304 5.82237 12.1552 5.23919 11.264C5.11335 11.325 5.00724 11.3729 4.90393 11.4265C3.87563 11.9589 2.84733 12.4933 1.81902 13.0257C0.937213 13.4831 0.489267 13.3563 0 12.5139C0 12.3261 0 12.1392 0 11.9514C0.217869 11.7194 0.395356 11.4124 0.661119 11.2677C2.10075 10.4874 3.56103 9.74454 5.01663 8.9942C5.63173 8.67773 6.15293 8.81483 6.53514 9.39144C7.08451 10.2207 7.62449 11.0574 8.16916 11.8894C8.23114 11.9843 8.30157 12.0735 8.33631 12.1214C9.68109 10.6132 11.0146 9.11817 12.3575 7.61186C11.2625 7.18364 10.1535 6.74696 9.04251 6.31685C8.67251 6.17317 8.40018 5.94779 8.28185 5.55337C7.85926 4.15412 7.42728 2.75769 7.0122 1.35657C6.96149 1.18565 6.96054 0.98187 6.99811 0.80626C7.09577 0.348922 7.49489 0.0286932 7.94753 0.0033377C8.43211 -0.0229569 8.85751 0.255955 9.0134 0.749917C9.35147 1.82048 9.68673 2.89198 9.99006 3.97288C10.0943 4.34664 10.2699 4.56075 10.6455 4.68847C11.3611 4.93169 12.0589 5.22938 12.7782 5.51017C12.7031 2.17358 15.2903 0.131053 17.6756 0.00803201C18.9387 -0.0567653 20.0919 0.269101 21.1005 1.03634C22.5626 2.14822 23.2181 3.6611 23.204 5.5205C24.0022 5.20872 24.7479 4.90728 25.502 4.6293C25.7443 4.54009 25.8739 4.4105 25.948 4.156C26.2777 3.02158 26.6223 1.89185 26.9782 0.76588C27.1632 0.179887 27.7276 -0.118745 28.2742 0.0465351C28.8498 0.219328 29.1607 0.778089 28.9832 1.37723C28.57 2.76709 28.1399 4.15224 27.721 5.54022C27.6112 5.90271 27.3858 6.14782 27.0336 6.28304C26.6956 6.41358 26.3594 6.54975 26.0222 6.68216C25.2212 6.99769 24.4201 7.31417 23.6463 7.61844C24.9911 9.1285 26.3237 10.6235 27.6628 12.127C27.6891 12.0904 27.7389 12.0275 27.783 11.9608C28.3352 11.1184 28.8836 10.2751 29.4377 9.4337C29.8537 8.80169 30.3543 8.67116 31.0342 9.01862C31.6803 9.34918 32.3217 9.68631 32.9659 10.0206C33.7857 10.447 34.6112 10.8649 35.4235 11.3034C35.9625 11.5946 36.1447 12.1984 35.8799 12.7158C35.6188 13.2267 35.015 13.422 34.4647 13.1703C34.3586 13.1215 34.2562 13.0642 34.1519 13.0107C33.0316 12.4294 31.9103 11.8481 30.7665 11.2555C30.173 12.1627 29.5861 13.0492 29.0198 13.9489C28.971 14.0259 29.0348 14.209 29.0949 14.3151C29.5974 15.2007 30.1439 16.0618 30.6144 16.9633C32.748 21.0512 33.8777 25.3898 33.8167 30.0186C33.8073 30.7154 33.473 31.1211 32.7818 31.2075C31.9348 31.3127 31.0849 31.4338 30.2331 31.4601C28.5352 31.5136 26.8975 31.2122 25.3808 30.4102C24.9319 30.1726 24.5112 29.8815 24.0454 29.596C24.16 30.2505 24.2614 30.8732 24.3845 31.4911C24.4098 31.6179 24.4943 31.7465 24.5835 31.8461C25.2757 32.6255 25.9809 33.3937 26.6721 34.1741C27.1247 34.684 27.1041 35.3367 26.6308 35.7339C26.5077 35.8344 26.3603 35.9067 26.2251 35.9931ZM13.7098 9.3952C8.18888 14.8692 4.55647 21.2343 4.26817 29.2532C4.76776 29.2889 5.21947 29.3331 5.67211 29.3528C8.93921 29.4955 11.3846 28.0324 12.7848 25.0846C13.7539 23.0421 14.1099 20.8512 14.2657 18.6218C14.4799 15.5331 14.2282 12.4679 13.7098 9.3952ZM31.7282 29.241C31.4333 21.224 27.8046 14.8598 22.2959 9.33791C22.2461 9.42713 22.2292 9.44403 22.2264 9.46469C21.7681 12.4951 21.5221 15.5369 21.7287 18.603C21.8545 20.4661 22.1372 22.303 22.7833 24.0657C23.3449 25.5964 24.1422 26.975 25.4738 27.9733C27.337 29.3697 29.4621 29.5096 31.7282 29.241ZM16.3261 12.9619C16.3261 13.0915 16.3224 13.2173 16.327 13.3422C16.3665 14.5245 16.4482 15.7059 16.4407 16.8882C16.4228 19.4266 16.2228 21.9593 15.3194 24.3502C14.9532 25.3203 15.0442 26.1185 15.4875 26.9656C15.6284 27.2351 15.7326 27.5309 15.9101 27.7723C16.2557 28.24 16.5947 28.7292 17.022 29.1161C17.6568 29.6908 18.3301 29.6655 18.9894 29.1171C19.257 28.8945 19.5228 28.6419 19.7021 28.3489C20.0675 27.7526 20.3802 27.1243 20.7013 26.5017C21.0141 25.896 21.1446 25.2781 20.7455 24.6498C20.7032 24.5822 20.6891 24.4967 20.6638 24.4188C19.6449 21.3367 19.4664 18.1569 19.5791 14.9462C19.6026 14.2869 19.6458 13.6277 19.6805 12.9562C18.2156 13.4267 17.8991 13.4267 16.3261 12.9619ZM17.9958 6.25112C18.8748 6.25112 19.7529 6.24548 20.6318 6.25487C20.8309 6.25675 20.953 6.20228 20.9643 5.99662C20.9887 5.54492 21.077 5.08289 21.0131 4.64339C20.769 2.94645 19.056 1.8186 17.3394 2.18109C15.649 2.53795 14.57 4.3025 15.0161 5.95906C15.0752 6.17881 15.1635 6.25863 15.3955 6.25581C16.2623 6.24266 17.129 6.25112 17.9958 6.25112ZM15.7073 8.37158C16.0134 9.09562 16.2313 9.79713 16.59 10.415C17.1619 11.4011 18.5856 11.4828 19.2833 10.5954C19.7885 9.95301 19.9754 9.16042 20.2243 8.37158C18.7274 8.37158 17.2774 8.37158 15.7073 8.37158Z" fill="white"/>
</svg>
