<svg width="36" height="33" viewBox="0 0 36 33" fill="none" xmlns="http://www.w3.org/2000/svg">
<path d="M23.4164 29.9805C23.2719 29.5995 23.1569 29.2415 22.9927 28.9131C22.95 28.8277 22.7463 28.7882 22.6149 28.7882C20.3026 28.7817 17.9936 28.785 15.6812 28.7817C14.7484 28.7784 14.1441 27.9375 14.4955 27.1263C14.7156 26.6139 15.1295 26.3839 15.6878 26.3839C17.987 26.3872 20.2862 26.3807 22.5821 26.3905C22.8646 26.3905 22.9861 26.3216 23.0813 26.0424C23.7415 24.0913 25.5382 22.7939 27.5648 22.7874C29.6143 22.7775 31.4208 24.0585 32.0974 26.0259C32.1959 26.3117 32.3109 26.4266 32.6164 26.3938C32.9219 26.3609 33.2339 26.3872 33.5656 26.3872C33.5656 24.7877 33.5656 23.2209 33.5656 21.5885C33.4473 21.5885 33.316 21.5885 33.1846 21.5885C31.7591 21.5885 30.3369 21.5918 28.9114 21.5885C26.7568 21.5819 25.1999 20.0283 25.1933 17.8803C25.1867 16.3562 25.19 14.8322 25.1933 13.3082C25.1933 12.5363 25.6827 12.0009 26.379 11.9943C27.0885 11.9878 27.591 12.533 27.591 13.3213C27.5943 14.8322 27.591 16.3464 27.591 17.8573C27.591 18.7014 28.0739 19.1875 28.9114 19.1908C30.4092 19.1941 31.9069 19.1908 33.4474 19.1908C33.3028 18.2974 33.0893 17.4533 32.6755 16.688C31.4306 14.3953 30.1727 12.1126 28.8786 9.84626C28.399 9.0087 27.5844 8.50287 26.6451 8.43389C25.3805 8.33864 24.1061 8.4109 22.7956 8.4109C22.7956 8.57512 22.7956 8.72293 22.7956 8.86745C22.7956 13.8271 22.7956 18.7868 22.7923 23.7464C22.7923 23.9337 22.789 24.1242 22.743 24.3015C22.5919 24.8763 22.0467 25.2409 21.4686 25.1818C20.8938 25.1227 20.4373 24.6431 20.3979 24.0585C20.388 23.9205 20.3946 23.7826 20.3946 23.6479C20.3946 16.7274 20.3946 9.80356 20.3946 2.88302C20.3946 2.73521 20.3946 2.5874 20.3946 2.41989C14.397 2.41989 8.43226 2.41989 2.42811 2.41989C2.42154 2.51514 2.40838 2.62024 2.40838 2.72863C2.4051 3.4151 2.41495 4.10158 2.40509 4.79134C2.39196 5.48766 1.85659 6.0099 1.18654 5.99676C0.536199 5.98691 0.0172552 5.46466 0.0106861 4.78476C0.000832488 3.59904 0.000832488 2.41005 0.0106861 1.22433C0.0172552 0.501725 0.519797 0.00246341 1.24897 0.00246341C8.01842 -0.000821137 14.7911 -0.000821137 21.5606 0.00246341C22.2963 0.00246341 22.7923 0.514845 22.7956 1.26701C22.8022 2.6925 22.7989 4.11471 22.7989 5.54021C22.7989 5.67487 22.7989 5.81283 22.7989 5.99676C22.9664 5.99676 23.1109 5.99348 23.2554 5.99676C24.5397 6.01975 25.8404 5.92449 27.1082 6.09201C28.7965 6.31536 30.1464 7.22846 31.007 8.72293C32.2814 10.94 33.5262 13.1768 34.7283 15.4365C35.5659 17.0131 35.9765 18.7244 35.9896 20.5112C36.0093 22.8104 35.9962 25.1095 35.9929 27.4087C35.9929 28.3251 35.5265 28.785 34.6035 28.785C33.8908 28.785 33.178 28.7751 32.4686 28.7948C32.3635 28.7981 32.2058 28.9131 32.1697 29.0116C31.3781 31.1892 29.6931 32.3815 27.3808 32.3815C25.4692 32.3815 23.5576 32.3848 21.646 32.3783C20.9398 32.375 20.411 31.8626 20.4044 31.1958C20.3979 30.5093 20.9267 29.9937 21.6526 29.9838C22.1157 29.9773 22.5755 29.9838 23.0386 29.9838C23.1569 29.9805 23.2784 29.9805 23.4164 29.9805ZM27.5779 25.1851C26.2575 25.1917 25.1867 26.2821 25.1966 27.6091C25.2064 28.913 26.2838 29.9805 27.591 29.9805C28.9147 29.9805 29.9953 28.8999 29.992 27.5762C29.9887 26.2526 28.9048 25.1785 27.5779 25.1851Z" fill="white"/>
<path d="M2.41141 26.3807C2.8384 26.3807 3.2227 26.4004 3.60699 26.3675C3.70224 26.361 3.82378 26.2 3.86319 26.0851C4.58579 24.0125 6.44813 22.7184 8.62579 22.7874C11.0137 22.8629 13.0567 24.8632 13.1979 27.2675C13.3424 29.7408 11.5753 31.9611 9.17432 32.3125C8.90499 32.352 8.62905 32.3782 8.35643 32.3782C5.99484 32.3848 3.63656 32.3848 1.27497 32.3782C0.365148 32.375 -0.222772 31.5473 0.0991136 30.736C0.283048 30.2729 0.706752 29.9838 1.24542 29.9805C2.23078 29.974 3.21613 29.9772 4.23106 29.9772C4.08654 29.5962 3.965 29.2349 3.80405 28.8901C3.77121 28.8178 3.59714 28.7849 3.48875 28.7817C2.76286 28.7718 2.04027 28.7784 1.31438 28.7751C0.503097 28.7718 0.0169967 28.2791 0.0137122 27.4613C0.0104276 25.5365 0.0104276 23.6151 0.0137122 21.6903C0.0137122 20.9218 0.506393 20.3864 1.20272 20.3831C1.89904 20.3798 2.40812 20.9185 2.40812 21.6772C2.4114 23.2275 2.41141 24.7778 2.41141 26.3807ZM10.8034 27.5762C10.8002 26.2526 9.71627 25.1785 8.3926 25.1818C7.08535 25.1884 6.01458 26.2591 6.00801 27.5664C6.00144 28.89 7.07874 29.9772 8.39913 29.9772C9.7228 29.9838 10.8067 28.8999 10.8034 27.5762Z" fill="white"/>
<path d="M8.4189 21.6412C4.02089 21.5886 0.417732 18.2384 0.0301554 13.7977C-0.337714 9.59018 2.7005 5.68485 6.93757 4.93269C7.36456 4.85715 7.80468 4.81444 8.23824 4.8013C9.0331 4.77503 9.58819 5.26444 9.60133 5.96733C9.61447 6.67679 9.07909 7.17604 8.28751 7.19246C5.78797 7.24502 3.56435 8.8216 2.75963 11.193C1.97791 13.5021 2.42133 15.614 4.12273 17.3549C5.84383 19.1187 7.97878 19.6442 10.3141 18.8526C12.6133 18.0742 13.9501 16.3958 14.3377 13.9849C14.3771 13.7386 14.3902 13.4889 14.4 13.2393C14.4263 12.5036 14.9289 11.9813 15.6121 11.9879C16.292 11.9945 16.7978 12.5364 16.8011 13.2623C16.8142 17.0494 14.0519 20.5146 10.3371 21.3489C9.70643 21.4934 9.05939 21.5459 8.4189 21.6412Z" fill="white"/>
<path d="M8.42879 12.7236C8.7014 12.4313 8.93458 12.1685 9.18092 11.9222C10.6097 10.4901 12.0385 9.05808 13.4706 7.6293C14.0289 7.07093 14.7647 7.04464 15.2606 7.55374C15.7467 8.05299 15.7139 8.76903 15.1654 9.32083C13.2242 11.2653 11.2831 13.2097 9.33861 15.1476C8.74083 15.7454 8.06747 15.7388 7.4664 15.1411C6.72409 14.402 5.98178 13.6597 5.24275 12.9174C4.69752 12.3689 4.66467 11.6496 5.15406 11.1536C5.65003 10.6445 6.38251 10.6774 6.94417 11.2357C7.42371 11.7054 7.89341 12.1882 8.42879 12.7236Z" fill="white"/>
<path d="M17.3922 29.9839C17.6156 29.9839 17.8422 29.974 18.0656 29.9872C18.6962 30.0233 19.1889 30.5423 19.1987 31.1663C19.2086 31.8068 18.7126 32.3488 18.0656 32.3783C17.6287 32.398 17.1919 32.398 16.7551 32.3783C16.1047 32.3521 15.6055 31.82 15.6055 31.1828C15.6055 30.5423 16.1047 30.02 16.7583 29.9872C16.9686 29.974 17.1787 29.9839 17.3922 29.9839Z" fill="white"/>
</svg>
